<!-- icon666.com - MILLIONS vector ICONS FREE --><svg id="Capa_1" enable-background="new 0 0 97.672 97.672" viewBox="0 0 97.672 97.672" xmlns="http://www.w3.org/2000/svg"><g><path d="m51.125 0c-26.656 0-40.096 19.11-40.096 35.047 0 9.649 3.653 18.232 11.487 21.432 1.286.525 2.438.019 2.812-1.403.258-.985.871-3.468 1.144-4.503.376-1.407.229-1.9-.807-3.126-2.259-2.665-3.703-6.115-3.703-11.002 0-14.178 10.608-26.87 27.624-26.87 15.064 0 23.342 9.206 23.342 21.5 0 16.176-7.159 29.828-17.786 29.828-5.87 0-10.262-4.854-8.854-10.807 1.686-7.107 4.951-14.778 4.951-19.907 0-4.592-2.463-8.423-7.565-8.423-6 0-10.819 6.207-10.819 14.521 0 5.296 1.789 8.878 1.789 8.878s-6.141 26.015-7.215 30.571c-2.145 9.072-.322 20.195-.168 21.318.089.666.944.824 1.332.322.555-.723 7.7-9.544 10.129-18.359.687-2.496 3.944-15.42 3.944-15.42 1.95 3.717 7.647 6.992 13.706 6.992 18.034 0 30.271-16.441 30.271-38.45.001-16.641-14.096-32.139-35.518-32.139z"></path></g><g></g><g></g><g></g><g></g><g></g><g></g><g></g><g></g><g></g><g></g><g></g><g></g><g></g><g></g><g></g></svg>